<?xml version="1.0" encoding="utf-8"?>
<!-- Generator: Adobe Illustrator 24.2.3, SVG Export Plug-In . SVG Version: 6.00 Build 0)  -->
<svg version="1.1" id="Layer_1" xmlns="http://www.w3.org/2000/svg" xmlns:xlink="http://www.w3.org/1999/xlink" x="0px" y="0px"
	 viewBox="0 0 125 35" style="enable-background:new 0 0 125 35;" xml:space="preserve">
<style type="text/css">
	.st0{fill:#3E4150;}
	.st1{opacity:0.3794;fill:url(#Combined-Shape_1_);enable-background:new    ;}
</style>
<desc>Created with Sketch.</desc>
<g>
	<g>
		<path class="st0" d="M61,23.3c0,0.3-0.1,0.5-0.4,0.8c-0.2,0.2-0.5,0.3-0.8,0.3c-0.2,0-0.4-0.1-0.6-0.2c-0.2-0.1-0.3-0.3-0.4-0.5
			l-1.5-3.5h-8.6l-1.5,3.5c-0.1,0.2-0.2,0.4-0.4,0.5c-0.2,0.1-0.4,0.2-0.6,0.2c-0.3,0-0.6-0.1-0.8-0.3c-0.2-0.2-0.4-0.5-0.4-0.8
			c0-0.1,0-0.3,0.1-0.5l6.6-14.5c0.1-0.3,0.3-0.4,0.5-0.6c0.2-0.1,0.5-0.2,0.8-0.2c0.3,0,0.5,0.1,0.8,0.2c0.2,0.1,0.4,0.3,0.5,0.6
			l6.6,14.5C61,23.1,61,23.2,61,23.3z M49.6,18.3h6.9L53,10.5L49.6,18.3z"/>
		<path class="st0" d="M71.4,13.7c0.7,0.8,1.1,1.9,1.1,3.5v6.1c0,0.4-0.1,0.6-0.3,0.8c-0.2,0.2-0.5,0.3-0.8,0.3
			c-0.3,0-0.6-0.1-0.8-0.3c-0.2-0.2-0.3-0.5-0.3-0.8v-0.9c-0.3,0.7-0.7,1.2-1.3,1.5c-0.6,0.4-1.3,0.5-2.1,0.5
			c-0.8,0-1.4-0.2-2.1-0.5c-0.6-0.3-1.1-0.7-1.5-1.3c-0.4-0.5-0.5-1.1-0.5-1.8c0-0.8,0.2-1.5,0.6-2c0.4-0.5,1.1-0.8,2.1-1
			c1-0.2,2.4-0.3,4.1-0.3h0.5v-0.7c0-0.9-0.2-1.5-0.5-1.9c-0.4-0.4-0.9-0.6-1.7-0.6c-0.5,0-1.1,0.1-1.6,0.2c-0.5,0.1-1,0.3-1.6,0.6
			c-0.4,0.2-0.7,0.4-0.9,0.4c-0.2,0-0.4-0.1-0.6-0.3c-0.1-0.2-0.2-0.4-0.2-0.7c0-0.2,0.1-0.4,0.2-0.6c0.1-0.2,0.3-0.4,0.6-0.5
			c0.5-0.3,1.2-0.5,1.9-0.7c0.7-0.2,1.4-0.3,2.1-0.3C69.6,12.5,70.7,12.9,71.4,13.7z M69.4,21.8c0.5-0.6,0.8-1.3,0.8-2.3v-0.6h-0.4
			c-1.2,0-2.2,0.1-2.8,0.2c-0.7,0.1-1.1,0.3-1.4,0.6c-0.3,0.3-0.4,0.6-0.4,1.1c0,0.6,0.2,1,0.6,1.4c0.4,0.4,0.9,0.5,1.5,0.5
			C68.2,22.7,68.9,22.4,69.4,21.8z"/>
		<path class="st0" d="M75.9,9.9c-0.3-0.2-0.4-0.6-0.4-1c0-0.4,0.1-0.7,0.4-1c0.3-0.2,0.6-0.4,1.1-0.4c0.4,0,0.8,0.1,1.1,0.4
			c0.3,0.2,0.4,0.6,0.4,1c0,0.4-0.1,0.7-0.4,1c-0.3,0.3-0.6,0.4-1.1,0.4C76.5,10.3,76.2,10.2,75.9,9.9z M76.1,24.1
			c-0.2-0.2-0.3-0.5-0.3-0.8v-9.5c0-0.4,0.1-0.7,0.3-0.9c0.2-0.2,0.5-0.3,0.9-0.3c0.3,0,0.6,0.1,0.8,0.3c0.2,0.2,0.3,0.5,0.3,0.9
			v9.5c0,0.4-0.1,0.7-0.3,0.8c-0.2,0.2-0.5,0.3-0.8,0.3C76.6,24.4,76.3,24.3,76.1,24.1z"/>
		<path class="st0" d="M88.6,13.6c0,0.3-0.1,0.6-0.3,0.8c-0.2,0.2-0.5,0.3-0.9,0.3l-0.7,0.1c-1,0.1-1.7,0.4-2.2,1
			c-0.5,0.6-0.7,1.3-0.7,2.2v5.4c0,0.4-0.1,0.7-0.3,0.8c-0.2,0.2-0.5,0.3-0.8,0.3c-0.3,0-0.6-0.1-0.9-0.3c-0.2-0.2-0.3-0.5-0.3-0.8
			v-9.6c0-0.4,0.1-0.6,0.3-0.8c0.2-0.2,0.5-0.3,0.9-0.3c0.3,0,0.6,0.1,0.8,0.3c0.2,0.2,0.3,0.5,0.3,0.8v1.1c0.3-0.7,0.8-1.2,1.4-1.6
			c0.6-0.4,1.3-0.6,2-0.6l0.3,0C88.2,12.5,88.6,12.9,88.6,13.6z"/>
		<path class="st0" d="M98.2,13.7c0.7,0.8,1.1,1.9,1.1,3.5v6.1c0,0.4-0.1,0.6-0.3,0.8c-0.2,0.2-0.5,0.3-0.8,0.3
			c-0.3,0-0.6-0.1-0.8-0.3c-0.2-0.2-0.3-0.5-0.3-0.8v-0.9c-0.3,0.7-0.7,1.2-1.3,1.5c-0.6,0.4-1.3,0.5-2.1,0.5
			c-0.8,0-1.4-0.2-2.1-0.5c-0.6-0.3-1.1-0.7-1.5-1.3c-0.4-0.5-0.5-1.1-0.5-1.8c0-0.8,0.2-1.5,0.6-2c0.4-0.5,1.1-0.8,2.1-1
			c1-0.2,2.4-0.3,4.1-0.3H97v-0.7c0-0.9-0.2-1.5-0.5-1.9c-0.4-0.4-0.9-0.6-1.7-0.6c-0.5,0-1.1,0.1-1.6,0.2c-0.5,0.1-1,0.3-1.6,0.6
			c-0.4,0.2-0.7,0.4-0.9,0.4c-0.2,0-0.4-0.1-0.6-0.3c-0.1-0.2-0.2-0.4-0.2-0.7c0-0.2,0.1-0.4,0.2-0.6c0.1-0.2,0.3-0.4,0.6-0.5
			c0.5-0.3,1.2-0.5,1.9-0.7c0.7-0.2,1.4-0.3,2.1-0.3C96.3,12.5,97.4,12.9,98.2,13.7z M96.2,21.8c0.5-0.6,0.8-1.3,0.8-2.3v-0.6h-0.4
			c-1.2,0-2.2,0.1-2.8,0.2c-0.7,0.1-1.1,0.3-1.4,0.6c-0.3,0.3-0.4,0.6-0.4,1.1c0,0.6,0.2,1,0.6,1.4c0.4,0.4,0.9,0.5,1.5,0.5
			C94.9,22.7,95.6,22.4,96.2,21.8z"/>
		<path class="st0" d="M111.1,12.8c0.2-0.1,0.4-0.2,0.6-0.2c0.3,0,0.6,0.1,0.8,0.3c0.2,0.2,0.3,0.4,0.3,0.7c0,0.2,0,0.3-0.1,0.4
			l-4.5,9.5c-0.1,0.3-0.3,0.4-0.5,0.6c-0.2,0.1-0.5,0.2-0.7,0.2s-0.5-0.1-0.7-0.2c-0.2-0.1-0.4-0.3-0.5-0.6l-4.5-9.5
			c-0.1-0.1-0.1-0.3-0.1-0.4c0-0.3,0.1-0.5,0.4-0.7c0.3-0.2,0.5-0.3,0.8-0.3c0.5,0,0.8,0.2,1,0.7l3.6,8.1l3.6-8.1
			C110.8,13.1,110.9,12.9,111.1,12.8z"/>
		<path class="st0" d="M124.6,23.3c0,0.3-0.1,0.6-0.3,0.8c-0.2,0.2-0.5,0.3-0.8,0.3c-0.3,0-0.6-0.1-0.8-0.4l-3.6-4l-3.6,4
			c-0.3,0.3-0.5,0.4-0.8,0.4c-0.3,0-0.6-0.1-0.8-0.3c-0.2-0.2-0.3-0.5-0.3-0.8c0-0.3,0.1-0.6,0.3-0.8l3.7-4.1l-3.5-3.9
			c-0.2-0.3-0.4-0.5-0.4-0.8c0-0.3,0.1-0.6,0.3-0.8s0.5-0.3,0.8-0.3c0.3,0,0.6,0.1,0.8,0.4l3.4,3.8l3.4-3.8c0.3-0.3,0.5-0.4,0.8-0.4
			c0.3,0,0.5,0.1,0.8,0.3s0.3,0.5,0.3,0.8c0,0.3-0.1,0.6-0.4,0.8l-3.5,3.9l3.7,4.1C124.5,22.7,124.6,23,124.6,23.3z"/>
	</g>
	<linearGradient id="Combined-Shape_1_" gradientUnits="userSpaceOnUse" x1="0" y1="17.5" x2="42.8675" y2="17.5">
		<stop  offset="0" style="stop-color:#384DFF"/>
		<stop  offset="1" style="stop-color:#24CDFF"/>
	</linearGradient>
	<path id="Combined-Shape_4_" class="st1" d="M17.7,0h7.5l17.7,35h-9.7L21.3,11h-0.1L16,21.8h7.1l3.5,7.4H12.4L9.5,35H0L17.7,0z"/>
</g>
</svg>
