<?xml version="1.0" encoding="utf-8"?>
<!-- Generator: Adobe Illustrator 24.2.3, SVG Export Plug-In . SVG Version: 6.00 Build 0)  -->
<svg version="1.1" id="Layer_1" xmlns="http://www.w3.org/2000/svg" xmlns:xlink="http://www.w3.org/1999/xlink" x="0px" y="0px"
	 viewBox="0 0 125 35" style="enable-background:new 0 0 125 35;" xml:space="preserve">
<style type="text/css">
	.st0{fill:#FFFFFF;}
	.st1{opacity:0.3794;fill:url(#Combined-Shape_1_);enable-background:new    ;}
</style>
<desc>Created with Sketch.</desc>
<g>
	<g>
		<path class="st0" d="M60.9,23.2c0,0.3-0.1,0.5-0.4,0.7c-0.2,0.2-0.5,0.3-0.8,0.3c-0.2,0-0.4-0.1-0.6-0.2s-0.3-0.3-0.4-0.5
			l-1.5-3.4h-8.4l-1.5,3.4c-0.1,0.2-0.2,0.4-0.4,0.5s-0.4,0.2-0.6,0.2c-0.3,0-0.6-0.1-0.8-0.3c-0.2-0.2-0.4-0.4-0.4-0.7
			c0-0.1,0-0.3,0.1-0.5l6.5-14.1c0.1-0.2,0.3-0.4,0.5-0.6c0.2-0.1,0.5-0.2,0.7-0.2c0.3,0,0.5,0.1,0.7,0.2c0.2,0.1,0.4,0.3,0.5,0.6
			l6.5,14.1C60.9,22.9,60.9,23.1,60.9,23.2z M49.7,18.3h6.7l-3.4-7.6L49.7,18.3z"/>
		<path class="st0" d="M71.1,13.8c0.7,0.7,1.1,1.9,1.1,3.4v5.9c0,0.4-0.1,0.6-0.3,0.8c-0.2,0.2-0.5,0.3-0.8,0.3
			c-0.3,0-0.6-0.1-0.8-0.3s-0.3-0.5-0.3-0.8v-0.8c-0.3,0.6-0.7,1.1-1.3,1.5s-1.2,0.5-2,0.5c-0.7,0-1.4-0.1-2-0.4
			c-0.6-0.3-1.1-0.7-1.4-1.2c-0.4-0.5-0.5-1.1-0.5-1.8c0-0.8,0.2-1.5,0.6-1.9c0.4-0.5,1.1-0.8,2.1-1c1-0.2,2.3-0.3,4-0.3h0.5v-0.7
			c0-0.9-0.2-1.5-0.5-1.9c-0.4-0.4-0.9-0.6-1.7-0.6c-0.5,0-1,0.1-1.5,0.2c-0.5,0.1-1,0.3-1.6,0.6c-0.4,0.2-0.7,0.3-0.9,0.3
			c-0.2,0-0.4-0.1-0.6-0.3C63.1,15.2,63,15,63,14.7c0-0.2,0.1-0.4,0.2-0.6c0.1-0.2,0.3-0.3,0.6-0.5c0.5-0.3,1.2-0.5,1.9-0.7
			c0.7-0.2,1.4-0.3,2.1-0.3C69.2,12.7,70.3,13,71.1,13.8z M69.1,21.7c0.5-0.6,0.8-1.3,0.8-2.2v-0.6h-0.4c-1.2,0-2.1,0.1-2.7,0.2
			c-0.6,0.1-1.1,0.3-1.4,0.5c-0.3,0.3-0.4,0.6-0.4,1.1c0,0.5,0.2,1,0.6,1.4c0.4,0.4,0.9,0.5,1.5,0.5C67.9,22.6,68.6,22.3,69.1,21.7z
			"/>
		<path class="st0" d="M75.4,10.1c-0.3-0.2-0.4-0.6-0.4-1c0-0.4,0.1-0.7,0.4-1C75.7,8,76,7.8,76.5,7.8c0.4,0,0.8,0.1,1,0.4
			c0.3,0.2,0.4,0.6,0.4,1c0,0.4-0.1,0.7-0.4,1c-0.3,0.2-0.6,0.4-1.1,0.4C76,10.5,75.7,10.3,75.4,10.1z M75.7,24
			c-0.2-0.2-0.3-0.5-0.3-0.8v-9.3c0-0.4,0.1-0.6,0.3-0.8c0.2-0.2,0.5-0.3,0.8-0.3c0.3,0,0.6,0.1,0.8,0.3c0.2,0.2,0.3,0.5,0.3,0.8
			v9.3c0,0.4-0.1,0.6-0.3,0.8c-0.2,0.2-0.5,0.3-0.8,0.3C76.2,24.2,75.9,24.1,75.7,24z"/>
		<path class="st0" d="M87.8,13.6c0,0.3-0.1,0.6-0.3,0.8c-0.2,0.2-0.5,0.3-0.9,0.3L86,14.8c-1,0.1-1.7,0.4-2.1,1s-0.7,1.3-0.7,2.1
			v5.2c0,0.4-0.1,0.6-0.3,0.8c-0.2,0.2-0.5,0.3-0.8,0.3c-0.3,0-0.6-0.1-0.8-0.3c-0.2-0.2-0.3-0.5-0.3-0.8v-9.3
			c0-0.4,0.1-0.6,0.3-0.8c0.2-0.2,0.5-0.3,0.8-0.3c0.3,0,0.6,0.1,0.8,0.3s0.3,0.5,0.3,0.8v1.1c0.3-0.7,0.7-1.2,1.3-1.5
			s1.2-0.6,2-0.6l0.3,0C87.5,12.7,87.8,13,87.8,13.6z"/>
		<path class="st0" d="M97.2,13.8c0.7,0.7,1.1,1.9,1.1,3.4v5.9c0,0.4-0.1,0.6-0.3,0.8c-0.2,0.2-0.5,0.3-0.8,0.3
			c-0.3,0-0.6-0.1-0.8-0.3S96,23.5,96,23.1v-0.8c-0.3,0.6-0.7,1.1-1.3,1.5s-1.2,0.5-2,0.5c-0.7,0-1.4-0.1-2-0.4
			c-0.6-0.3-1.1-0.7-1.4-1.2c-0.4-0.5-0.5-1.1-0.5-1.8c0-0.8,0.2-1.5,0.6-1.9c0.4-0.5,1.1-0.8,2.1-1c1-0.2,2.3-0.3,4-0.3H96v-0.7
			c0-0.9-0.2-1.5-0.5-1.9c-0.4-0.4-0.9-0.6-1.7-0.6c-0.5,0-1,0.1-1.5,0.2c-0.5,0.1-1,0.3-1.6,0.6c-0.4,0.2-0.7,0.3-0.9,0.3
			c-0.2,0-0.4-0.1-0.6-0.3c-0.1-0.2-0.2-0.4-0.2-0.6c0-0.2,0.1-0.4,0.2-0.6c0.1-0.2,0.3-0.3,0.6-0.5c0.5-0.3,1.2-0.5,1.9-0.7
			c0.7-0.2,1.4-0.3,2.1-0.3C95.3,12.7,96.4,13,97.2,13.8z M95.2,21.7c0.5-0.6,0.8-1.3,0.8-2.2v-0.6h-0.4c-1.2,0-2.1,0.1-2.7,0.2
			c-0.6,0.1-1.1,0.3-1.4,0.5c-0.3,0.3-0.4,0.6-0.4,1.1c0,0.5,0.2,1,0.6,1.4c0.4,0.4,0.9,0.5,1.5,0.5C94,22.6,94.7,22.3,95.2,21.7z"
			/>
		<path class="st0" d="M109.8,12.9c0.2-0.1,0.4-0.2,0.6-0.2c0.3,0,0.5,0.1,0.8,0.3c0.2,0.2,0.3,0.4,0.3,0.7c0,0.2,0,0.3-0.1,0.4
			l-4.4,9.3c-0.1,0.2-0.3,0.4-0.5,0.6c-0.2,0.1-0.5,0.2-0.7,0.2s-0.5-0.1-0.7-0.2c-0.2-0.1-0.4-0.3-0.5-0.6l-4.4-9.3
			c-0.1-0.1-0.1-0.3-0.1-0.4c0-0.3,0.1-0.5,0.4-0.7c0.2-0.2,0.5-0.3,0.8-0.3c0.4,0,0.8,0.2,1,0.6l3.5,7.9l3.5-7.9
			C109.5,13.2,109.6,13,109.8,12.9z"/>
		<path class="st0" d="M122.9,23.2c0,0.3-0.1,0.5-0.3,0.7s-0.5,0.3-0.7,0.3s-0.6-0.1-0.8-0.4l-3.5-3.9l-3.5,3.9
			c-0.2,0.3-0.5,0.4-0.8,0.4s-0.5-0.1-0.7-0.3c-0.2-0.2-0.3-0.5-0.3-0.8s0.1-0.5,0.3-0.8l3.6-4l-3.4-3.8c-0.2-0.3-0.3-0.5-0.3-0.8
			c0-0.3,0.1-0.5,0.3-0.7s0.5-0.3,0.7-0.3c0.3,0,0.6,0.1,0.8,0.4l3.3,3.8l3.3-3.8c0.2-0.3,0.5-0.4,0.8-0.4c0.3,0,0.5,0.1,0.7,0.3
			s0.3,0.5,0.3,0.7c0,0.3-0.1,0.5-0.3,0.8l-3.4,3.8l3.6,4C122.8,22.6,122.9,22.9,122.9,23.2z"/>
	</g>
	<linearGradient id="Combined-Shape_1_" gradientUnits="userSpaceOnUse" x1="1.4184" y1="17.5" x2="39.4483" y2="17.5">
		<stop  offset="0" style="stop-color:#FFFFFF"/>
		<stop  offset="1" style="stop-color:#24CDFF"/>
	</linearGradient>
	<path id="Combined-Shape_4_" class="st1" d="M17.1,2.4h6.7l15.7,30.3h-8.6L20.3,11.9h-0.1l-4.7,9.3h6.3l3.1,6.4H12.4l-2.5,5.1H1.4
		L17.1,2.4z"/>
</g>
</svg>
