<?xml version="1.0" encoding="utf-8"?>
<!-- Generator: Adobe Illustrator 24.2.3, SVG Export Plug-In . SVG Version: 6.00 Build 0)  -->
<svg version="1.1" id="Layer_1" xmlns="http://www.w3.org/2000/svg" xmlns:xlink="http://www.w3.org/1999/xlink" x="0px" y="0px"
	 viewBox="0 0 125 35" style="enable-background:new 0 0 125 35;" xml:space="preserve">
<style type="text/css">
	.st0{opacity:0.3794;fill-rule:evenodd;clip-rule:evenodd;fill:url(#Combined-Shape_2_);enable-background:new    ;}
	.st1{fill-rule:evenodd;clip-rule:evenodd;fill:url(#Combined-Shape_3_);}
	.st2{fill-rule:evenodd;clip-rule:evenodd;fill:#3E4150;}
</style>
<desc>Created with Sketch.</desc>
<g id="Logo-Dark">
	<g>
		<g id="Group">
			
				<linearGradient id="Combined-Shape_2_" gradientUnits="userSpaceOnUse" x1="-233.8944" y1="402.9561" x2="-233.049" y2="402.3099" gradientTransform="matrix(26.7582 0 0 -34.3904 6259.2329 13859.6172)">
				<stop  offset="0" style="stop-color:#384DFF"/>
				<stop  offset="1" style="stop-color:#24CDFF"/>
			</linearGradient>
			<path id="Combined-Shape" class="st0" d="M7.9,34.4C3.1,30.9,0,25.3,0,19C0,8.5,8.5,0,19,0c2.8,0,5.4,0.6,7.8,1.7l-3.5,6.1
				C21.9,7.3,20.5,7,19,7C12.4,7,7,12.4,7,19c0,3.7,1.7,7.1,4.4,9.3L7.9,34.4z"/>
			
				<linearGradient id="Combined-Shape_3_" gradientUnits="userSpaceOnUse" x1="-232.8913" y1="398.1447" x2="-232.0459" y2="397.4984" gradientTransform="matrix(24 0 0 -24 5596 9565)">
				<stop  offset="0" style="stop-color:#384DFF"/>
				<stop  offset="1" style="stop-color:#24CDFF"/>
			</linearGradient>
			<path id="Combined-Shape_1_" class="st1" d="M19,31c-6.6,0-12-5.4-12-12S12.4,7,19,7s12,5.4,12,12S25.6,31,19,31z M19,25
				c3.3,0,6-2.7,6-6s-2.7-6-6-6s-6,2.7-6,6S15.7,25,19,25z"/>
		</g>
		<path id="Beapp" class="st2" d="M56.7,17.3c1,0.3,1.7,0.7,2.3,1.4c0.5,0.7,0.8,1.6,0.8,2.6c0,1.5-0.5,2.6-1.5,3.4
			c-1,0.8-2.4,1.2-4.2,1.2h-6c-0.3,0-0.5-0.1-0.7-0.3c-0.2-0.2-0.3-0.4-0.3-0.7V10c0-0.3,0.1-0.5,0.3-0.7c0.2-0.2,0.4-0.3,0.7-0.3
			h5.8c1.7,0,3.1,0.4,4.1,1.2c1,0.8,1.4,1.9,1.4,3.3c0,0.9-0.2,1.7-0.7,2.4C58.2,16.5,57.5,17,56.7,17.3z M49,16.6h4.6
			c1.3,0,2.2-0.3,2.9-0.8c0.6-0.5,1-1.3,1-2.2c0-1.9-1.3-2.9-3.8-2.9H49V16.6z M54,24.4c1.3,0,2.3-0.2,2.9-0.7
			c0.6-0.5,0.9-1.3,0.9-2.3c0-2.1-1.3-3.1-3.9-3.1H49v6.1H54z M72.8,23.3c0.2,0,0.3,0.1,0.5,0.2s0.2,0.3,0.2,0.6
			c0,0.4-0.3,0.8-0.8,1.1c-0.6,0.3-1.2,0.6-1.8,0.8c-0.6,0.2-1.3,0.3-1.9,0.3c-1.8,0-3.2-0.5-4.3-1.6c-1-1.1-1.6-2.6-1.6-4.4
			c0-1.2,0.2-2.3,0.7-3.2c0.5-0.9,1.1-1.6,2-2.1c0.8-0.5,1.8-0.8,2.9-0.8c1.5,0,2.7,0.5,3.6,1.5s1.3,2.3,1.3,4
			c0,0.3-0.1,0.6-0.2,0.7s-0.3,0.2-0.6,0.2H65c0.1,2.8,1.4,4.1,3.9,4.1c0.6,0,1.2-0.1,1.6-0.3c0.4-0.2,0.9-0.4,1.4-0.7
			C72.4,23.4,72.7,23.3,72.8,23.3z M68.6,15.5c-1,0-1.8,0.3-2.5,1s-1,1.5-1.1,2.7h6.8c0-1.2-0.3-2.1-0.9-2.7
			C70.4,15.9,69.6,15.5,68.6,15.5z M82,14c2.9,0,4.4,1.5,4.4,4.6v6.5c0,0.3-0.1,0.5-0.3,0.7c-0.2,0.2-0.4,0.3-0.7,0.3
			s-0.5-0.1-0.7-0.3c-0.2-0.2-0.3-0.4-0.3-0.7V24c-0.3,0.7-0.8,1.2-1.4,1.6c-0.6,0.4-1.3,0.6-2.2,0.6c-0.8,0-1.4-0.2-2.1-0.5
			c-0.6-0.3-1.1-0.7-1.5-1.3c-0.4-0.5-0.6-1.1-0.6-1.8c0-0.9,0.2-1.6,0.7-2.1c0.4-0.5,1.2-0.8,2.2-1.1c1-0.2,2.4-0.3,4.3-0.3h0.5
			v-0.8c0-1-0.2-1.7-0.6-2.1c-0.4-0.4-1-0.7-1.9-0.7c-1.1,0-2.2,0.3-3.3,0.9c-0.4,0.3-0.7,0.4-0.9,0.4c-0.2,0-0.4-0.1-0.5-0.2
			c-0.1-0.1-0.2-0.3-0.2-0.6s0.1-0.4,0.2-0.6c0.1-0.2,0.4-0.3,0.7-0.5c0.6-0.3,1.2-0.6,1.9-0.8S81.3,14,82,14z M81.2,24.6
			c1,0,1.7-0.3,2.4-1s0.9-1.5,0.9-2.5v-0.7h-0.4c-1.4,0-2.5,0.1-3.2,0.2c-0.7,0.1-1.3,0.3-1.6,0.6s-0.5,0.7-0.5,1.2
			c0,0.6,0.2,1.1,0.7,1.5C79.9,24.4,80.5,24.6,81.2,24.6z M96.6,14c1,0,1.9,0.3,2.7,0.8c0.8,0.5,1.4,1.2,1.8,2.1
			c0.4,0.9,0.6,2,0.6,3.2c0,1.2-0.2,2.3-0.6,3.2c-0.4,0.9-1,1.6-1.8,2.1s-1.7,0.7-2.7,0.7c-0.9,0-1.7-0.2-2.4-0.6
			c-0.7-0.4-1.2-1-1.5-1.7v5.6c0,0.3-0.1,0.5-0.3,0.7c-0.2,0.2-0.4,0.3-0.7,0.3c-0.3,0-0.5-0.1-0.7-0.3c-0.2-0.2-0.3-0.4-0.3-0.7V15
			c0-0.3,0.1-0.5,0.3-0.7c0.2-0.2,0.4-0.3,0.7-0.3c0.3,0,0.5,0.1,0.7,0.3c0.2,0.2,0.3,0.4,0.3,0.7v1.3c0.4-0.7,0.9-1.3,1.5-1.7
			C94.9,14.2,95.7,14,96.6,14z M96.2,24.6c1.1,0,2-0.4,2.6-1.2c0.6-0.8,0.9-1.9,0.9-3.3c0-1.4-0.3-2.5-0.9-3.3
			c-0.6-0.8-1.5-1.2-2.6-1.2c-1.1,0-2,0.4-2.6,1.2s-0.9,1.9-0.9,3.3c0,1.4,0.3,2.5,0.9,3.3C94.2,24.2,95.1,24.6,96.2,24.6z
			 M111.4,14c1,0,1.9,0.3,2.7,0.8c0.8,0.5,1.4,1.2,1.8,2.1c0.4,0.9,0.6,2,0.6,3.2c0,1.2-0.2,2.3-0.6,3.2c-0.4,0.9-1,1.6-1.8,2.1
			c-0.8,0.5-1.7,0.7-2.7,0.7c-0.9,0-1.7-0.2-2.4-0.6c-0.7-0.4-1.2-1-1.5-1.7v5.6c0,0.3-0.1,0.5-0.3,0.7c-0.2,0.2-0.4,0.3-0.7,0.3
			s-0.5-0.1-0.7-0.3s-0.3-0.4-0.3-0.7V15c0-0.3,0.1-0.5,0.3-0.7c0.2-0.2,0.4-0.3,0.7-0.3s0.5,0.1,0.7,0.3c0.2,0.2,0.3,0.4,0.3,0.7
			v1.3c0.4-0.7,0.9-1.3,1.5-1.7C109.7,14.2,110.5,14,111.4,14z M111,24.6c1.1,0,2-0.4,2.6-1.2c0.6-0.8,0.9-1.9,0.9-3.3
			c0-1.4-0.3-2.5-0.9-3.3c-0.6-0.8-1.5-1.2-2.6-1.2c-1.1,0-2,0.4-2.6,1.2c-0.6,0.8-0.9,1.9-0.9,3.3c0,1.4,0.3,2.5,0.9,3.3
			C109,24.2,109.9,24.6,111,24.6z"/>
	</g>
</g>
</svg>
